<svg width="479" height="384" viewBox="0 0 479 384" fill="none" xmlns="http://www.w3.org/2000/svg">
<g clip-path="url(#clip0_2_2)">
<path d="M190.976 178.611C186.123 183.183 179.83 184.386 176.92 181.298C174.011 178.209 175.586 171.999 180.44 167.427C182.564 165.425 184.964 164.069 187.236 163.436L208.043 144.32L216.806 154.275L195.364 172.064C194.597 174.294 193.101 176.609 190.976 178.611V178.611Z" fill="#FFB6B6"/>
<path d="M300.444 375.337L290.413 375.336L285.642 336.646L300.446 336.647L300.444 375.337Z" fill="#FFB6B6"/>
<path d="M266.078 375.109C265.765 375.635 265.601 377.333 265.601 377.945C265.601 379.825 267.125 381.349 269.005 381.349H300.069C301.351 381.349 302.391 380.309 302.391 379.027V377.733C302.391 377.733 303.928 373.846 300.764 369.056C300.764 369.056 296.832 372.807 290.956 366.931L289.223 363.792L276.681 372.965L269.729 373.821C268.209 374.008 266.86 373.792 266.078 375.109V375.109Z" fill="#2F2E41"/>
<path d="M370.814 369.639L360.951 371.47L349.195 334.302L363.751 331.6L370.814 369.639Z" fill="#FFB6B6"/>
<path d="M336.984 375.691C336.773 376.265 336.921 377.964 337.032 378.566C337.376 380.414 339.153 381.635 341.001 381.291L371.543 375.619C372.804 375.385 373.636 374.173 373.402 372.911L373.166 371.64C373.166 371.64 373.967 367.538 369.981 363.405C369.981 363.405 366.8 367.811 359.951 363.108L357.674 360.338L347.018 371.646L340.339 373.757C338.878 374.219 337.512 374.253 336.984 375.691V375.691Z" fill="#2F2E41"/>
<path d="M346.234 184.131L370.941 349.554L347.941 352.554L307.941 221.554L302.941 356.554H281.504C281.504 356.554 262.989 207.554 268.465 189.554C273.941 171.554 346.234 184.131 346.234 184.131V184.131Z" fill="#2F2E41"/>
<path d="M292.941 51.5536H316.941L320.441 60.0536C320.441 60.0536 334.441 68.0536 334.441 71.0536C334.441 74.0536 342.941 149.554 342.941 149.554L347.441 191.054C347.441 191.054 294.941 217.554 268.941 190.554L273.941 144.554C273.941 144.554 269.941 72.5536 271.941 69.5536C273.941 66.5536 288.941 59.5536 288.941 59.5536L292.941 51.5536V51.5536Z" fill="#6C63FF"/>
<path d="M285.435 64.4536H285.435C285.435 64.4536 292.749 75.5067 290.441 80.0536C288.134 84.6005 252.117 128.237 252.117 128.237L208.662 164.023L195.925 152.72L236.856 113.673L263.303 74.6702C267.512 66.6418 276.595 62.4489 285.435 64.4536V64.4536Z" fill="#6C63FF"/>
<path d="M367.96 208.119C369.005 214.705 366.454 220.582 362.264 221.247C358.073 221.912 353.829 217.112 352.784 210.527C352.327 207.644 352.558 204.897 353.315 202.664L349.238 174.703L362.4 173.07L365.022 200.806C366.432 202.696 367.503 205.237 367.96 208.119V208.119Z" fill="#FFB6B6"/>
<path d="M316.77 65.5471C316.77 65.5471 337.465 60.9153 341.225 72.3919C344.984 83.8685 367.577 192.728 367.577 192.728L350.366 194.634L337.441 120.054L316.77 65.5471H316.77Z" fill="#6C63FF"/>
<path d="M305.764 45.9869C317.16 45.9869 326.398 36.7487 326.398 25.3528C326.398 13.9569 317.16 4.71869 305.764 4.71869C294.368 4.71869 285.13 13.9569 285.13 25.3528C285.13 36.7487 294.368 45.9869 305.764 45.9869Z" fill="#FFB6B6"/>
<path d="M317.837 42.8731C316.514 42.9374 314.767 42.6854 314.546 41.3795C314.389 40.4582 315.166 39.6641 315.897 39.0823C316.917 38.2712 317.992 37.515 318.868 36.5507C319.745 35.5864 320.419 34.3669 320.436 33.0642C320.452 31.7614 319.677 30.4022 318.43 30.0231C317.184 29.6439 315.629 30.5707 315.61 31.8734C314.409 30.0485 314.249 27.7492 314.186 25.5652C314.149 24.2872 314.133 23.0085 314.137 21.73C314.143 19.9832 314.187 18.2369 314.231 16.4908C313.372 16.4455 306.441 19.0536 305.441 19.0536C304.581 19.0536 297.672 17.682 298.132 15.7137C297.996 16.9717 291.405 19.2377 291.27 18.5793C291.136 17.9208 290.644 17.2258 289.973 17.2651C289.266 17.3066 288.882 18.0905 288.644 18.7579C288.113 20.248 286.823 22.8233 285.441 22.0536C274.982 16.2285 283.415 14.4142 284.654 12.0453C286.177 9.13326 287.802 6.10364 290.513 4.2459C293.224 2.38816 295.363 0.169974 297.499 2.66795C302.855 -1.23669 308.17 -0.294826 314.413 1.93173C320.657 4.15829 325.651 9.60612 327.328 16.0191C328.097 18.9586 330.156 20.2484 328.622 22.8709C330.313 25.139 329.397 23.8557 329.731 26.6651C329.995 28.8817 329.774 31.2213 328.675 33.1641C327.501 35.2396 325.422 36.6836 323.2 37.549C320.978 38.4144 320.594 42.7609 318.234 43.1012" fill="#2F2E41"/>
<path d="M420.346 365.602C422.412 365.731 423.553 363.164 421.99 361.668L421.835 361.05C421.855 361 421.876 360.951 421.897 360.902C423.986 355.92 431.067 355.954 433.138 360.943C434.977 365.372 437.318 369.807 437.894 374.489C438.152 376.556 438.036 378.662 437.577 380.69C441.885 371.279 444.153 361.003 444.153 350.669C444.153 348.072 444.01 345.476 443.72 342.886C443.481 340.768 443.151 338.662 442.725 336.576C440.419 325.299 435.427 314.557 428.225 305.586C424.763 303.694 421.876 300.735 420.132 297.19C419.506 295.911 419.015 294.535 418.782 293.133C419.176 293.185 420.268 287.185 419.971 286.817C420.52 285.983 421.502 285.569 422.102 284.756C425.084 280.713 429.193 281.419 431.338 286.914C435.92 289.226 435.965 293.062 433.153 296.75C431.364 299.097 431.119 302.273 429.549 304.785C429.711 304.992 429.878 305.192 430.04 305.399C433.001 309.197 435.562 313.279 437.721 317.567C437.111 312.801 438.012 307.059 439.547 303.358C441.296 299.14 444.572 295.589 447.458 291.943C450.924 287.564 458.031 289.475 458.642 295.026C458.648 295.08 458.654 295.134 458.659 295.187C458.231 295.429 457.811 295.686 457.401 295.957C455.061 297.504 455.87 301.131 458.642 301.559L458.704 301.569C458.549 303.112 458.285 304.643 457.897 306.148C461.599 320.464 453.607 325.678 442.196 325.912C441.944 326.041 441.698 326.17 441.446 326.293C442.602 329.548 443.526 332.888 444.211 336.272C444.824 339.263 445.251 342.285 445.49 345.321C445.787 349.151 445.761 353.001 445.438 356.824L445.457 356.689C446.277 352.477 448.564 348.544 451.884 345.818C456.829 341.756 463.817 340.26 469.152 336.994C471.72 335.422 475.012 337.454 474.563 340.431L474.542 340.574C473.747 340.897 472.972 341.271 472.223 341.691C471.794 341.933 471.374 342.19 470.964 342.461C468.625 344.008 469.433 347.635 472.205 348.063L472.268 348.072C472.313 348.079 472.352 348.085 472.397 348.092C471.034 351.328 469.135 354.331 466.759 356.921C464.444 369.418 454.503 370.604 443.868 366.965H443.862C442.699 372.028 441.001 376.976 438.818 381.691H420.797C420.733 381.491 420.675 381.284 420.616 381.084C422.283 381.187 423.962 381.09 425.603 380.787C424.266 379.146 422.929 377.493 421.592 375.852C421.559 375.82 421.534 375.787 421.508 375.755C420.83 374.916 420.145 374.082 419.467 373.243L419.466 373.242C419.424 370.664 419.733 368.095 420.345 365.602L420.346 365.602V365.602Z" fill="#F2F2F2"/>
<path d="M0 382.047C0 382.707 0.53003 383.237 1.19006 383.237H477.48C478.14 383.237 478.67 382.707 478.67 382.047C478.67 381.387 478.14 380.857 477.48 380.857H1.19006C0.53003 380.857 0 381.387 0 382.047Z" fill="#CCCCCC"/>
<path d="M107.489 273.849L107.353 271.852C111.255 271.588 115.166 271.054 118.979 270.264L119.385 272.223C115.483 273.03 111.481 273.577 107.489 273.849V273.849ZM95.4696 273.671C91.434 273.308 87.4447 272.729 83.6132 271.953L84.0107 269.992C87.7704 270.755 91.6864 271.322 95.6493 271.679L95.4696 273.671H95.4696ZM130.949 268.984L130.278 267.1C133.954 265.792 137.573 264.216 141.038 262.416L141.959 264.191C138.414 266.033 134.71 267.645 130.949 268.984H130.949ZM72.0268 268.858C68.1957 267.573 64.4608 266.039 60.9262 264.296L61.81 262.503C65.265 264.205 68.9159 265.706 72.6625 266.962L72.0268 268.858V268.858ZM50.5575 258.236C47.2558 255.973 44.098 253.449 41.1727 250.735L42.5331 249.268C45.3866 251.916 48.4672 254.378 51.6884 256.586L50.5575 258.236H50.5575ZM152.207 257.943L151.052 256.31C154.238 254.057 157.298 251.562 160.149 248.898L161.514 250.359C158.598 253.085 155.467 255.637 152.207 257.943ZM32.9848 241.927C30.4965 238.821 28.2025 235.49 26.1674 232.027L27.892 231.014C29.8783 234.394 32.1171 237.645 34.5453 240.677L32.9848 241.927V241.927ZM169.711 241.586L168.161 240.322C170.628 237.292 172.908 234.066 174.937 230.736L176.645 231.777C174.569 235.184 172.236 238.484 169.711 241.586H169.711ZM20.8188 221.272C19.3007 217.604 18.0102 213.776 16.9833 209.893L18.9169 209.382C19.9208 213.179 21.1825 216.922 22.6664 220.507L20.8187 221.272L20.8188 221.272ZM182.179 221.116L180.345 220.317C181.902 216.739 183.225 213.016 184.276 209.253L186.202 209.792C185.126 213.642 183.772 217.453 182.179 221.116ZM14.6762 198.111C14.1649 194.159 13.9037 190.129 13.9003 186.134L15.9003 186.132C15.9037 190.043 16.1591 193.987 16.6596 197.855L14.6762 198.111V198.111ZM188.633 198.032L186.651 197.763C187.176 193.908 187.441 189.969 187.441 186.054L187.441 185.873H189.441L189.441 186.046C189.441 190.058 189.169 194.089 188.633 198.032V198.032ZM16.6396 174.407L14.6552 174.153C15.1625 170.18 15.9315 166.214 16.9413 162.369L18.8759 162.876C17.8881 166.639 17.1356 170.518 16.6395 174.407H16.6396ZM186.627 174.168C186.093 170.299 185.285 166.434 184.228 162.682L186.153 162.14C187.235 165.979 188.061 169.934 188.609 173.894L186.627 174.168H186.627ZM22.6049 151.746L20.7553 150.984C22.2851 147.27 24.0771 143.65 26.081 140.224L27.8075 141.234C25.8495 144.58 24.099 148.117 22.6049 151.746H22.6049ZM180.277 151.633C178.716 148.064 176.892 144.566 174.854 141.235L176.56 140.191C178.646 143.6 180.513 147.18 182.109 150.832L180.277 151.633V151.633ZM168.064 131.668C165.596 128.647 162.895 125.766 160.038 123.106L161.402 121.642C164.325 124.365 167.087 127.312 169.613 130.402L168.064 131.668V131.668ZM34.4389 131.563L32.8754 130.316C35.3739 127.183 38.12 124.217 41.0365 121.497L42.4008 122.96C39.5551 125.613 36.8764 128.507 34.4389 131.563ZM150.926 115.708C147.73 113.456 144.354 111.407 140.891 109.615L141.81 107.839C145.354 109.672 148.809 111.769 152.078 114.073L150.926 115.708L150.926 115.708ZM51.539 115.622L50.4042 113.975C53.6713 111.725 57.1552 109.679 60.7592 107.892L61.6479 109.684C58.1283 111.428 54.7275 113.426 51.539 115.622H51.539ZM72.4906 105.201L71.851 103.306C75.5649 102.053 79.4614 101.005 83.4321 100.191L83.8334 102.15C79.9433 102.948 76.1269 103.974 72.4906 105.201V105.201ZM130.117 104.95C126.438 103.649 122.631 102.592 118.803 101.807L119.205 99.8476C123.122 100.651 127.018 101.733 130.784 103.064L130.117 104.95L130.117 104.95ZM95.4682 100.445L95.2856 98.4535C97.2875 98.2699 99.3456 98.1356 101.403 98.0546C103.349 98.0316 105.366 98.1181 107.305 98.2455L107.174 100.242C105.278 100.117 103.35 100.054 101.442 100.054C99.4589 100.133 97.4359 100.265 95.4682 100.445V100.445Z" fill="#3F3D56"/>
<path d="M34.8743 267.876C49.786 267.876 61.8743 255.788 61.8743 240.876C61.8743 225.964 49.786 213.876 34.8743 213.876C19.9626 213.876 7.8743 225.964 7.8743 240.876C7.8743 255.788 19.9626 267.876 34.8743 267.876Z" fill="#6C63FF"/>
<path d="M114.607 126.515C129.518 126.515 141.607 114.427 141.607 99.5151C141.607 84.6034 129.518 72.5151 114.607 72.5151C99.695 72.5151 87.6067 84.6034 87.6067 99.5151C87.6067 114.427 99.695 126.515 114.607 126.515Z" fill="#6C63FF"/>
<path d="M27.7197 169.223C42.6314 169.223 54.7197 157.134 54.7197 142.223C54.7197 127.311 42.6314 115.223 27.7197 115.223C12.808 115.223 0.719666 127.311 0.719666 142.223C0.719666 157.134 12.808 169.223 27.7197 169.223Z" fill="#6C63FF"/>
<path d="M124.926 297.536C139.838 297.536 151.926 285.447 151.926 270.536C151.926 255.624 139.838 243.536 124.926 243.536C110.014 243.536 97.9259 255.624 97.9259 270.536C97.9259 285.447 110.014 297.536 124.926 297.536Z" fill="#6C63FF"/>
<path d="M127.425 88H102.576C101.156 88 100 88.8345 100 89.8603V91.5584V101.798V103.496C100 104.522 101.156 105.357 102.576 105.357H110.73V106.642H107.565C107.046 106.642 106.625 106.946 106.625 107.321C106.625 107.696 107.046 108 107.565 108H111.67H118.33H122.435C122.954 108 123.375 107.696 123.375 107.321C123.375 106.946 122.954 106.642 122.435 106.642H119.27V105.357H127.425C128.845 105.357 130 104.522 130 103.496V101.798V91.5584V89.8603C130 88.8345 128.845 88 127.425 88ZM102.576 89.3582H127.425C127.809 89.3582 128.12 89.5834 128.12 89.8603V90.8793H101.88V89.8603C101.88 89.5834 102.192 89.3582 102.576 89.3582ZM128.12 101.119H101.88V92.2374H128.12V101.119ZM117.39 106.642H112.61V105.357H117.39V106.642ZM127.425 103.999H118.33H111.67H102.576C102.192 103.999 101.88 103.773 101.88 103.496V102.477H128.12V103.496C128.12 103.773 127.809 103.999 127.425 103.999Z" fill="#FFF3F3"/>
<path d="M112.342 99.2738C112.583 99.2738 112.823 99.2075 113.007 99.0749L118.312 95.242C118.679 94.9768 118.679 94.5469 118.312 94.2816C117.945 94.0164 117.35 94.0164 116.983 94.2816L111.678 98.1145C111.311 98.3797 111.311 98.8096 111.678 99.0748C111.861 99.2074 112.102 99.2738 112.342 99.2738Z" fill="#FFF3F3"/>
<path d="M109.055 99.0748C109.239 99.2074 109.479 99.2737 109.72 99.2737C109.96 99.2737 110.201 99.2074 110.384 99.0748C110.752 98.8096 110.752 98.3797 110.384 98.1145L108.438 96.7078L110.396 95.2931C110.763 95.0278 110.763 94.5979 110.396 94.3327C110.029 94.0676 109.434 94.0676 109.067 94.3327L106.444 96.2276C106.077 96.4929 106.077 96.9228 106.444 97.1879L109.055 99.0748Z" fill="#FFF3F3"/>
<path d="M119.606 99.0747C119.789 99.2074 120.03 99.2737 120.27 99.2737C120.511 99.2737 120.751 99.2074 120.935 99.0748L123.557 97.18C123.734 97.0526 123.833 96.88 123.833 96.6998C123.833 96.5197 123.734 96.347 123.557 96.2195L120.946 94.3325C120.579 94.0673 119.983 94.0673 119.617 94.3326C119.249 94.5978 119.249 95.0278 119.617 95.2929L121.564 96.6997L119.606 98.1143C119.239 98.3796 119.239 98.8096 119.606 99.0747Z" fill="#FFF3F3"/>
<path d="M136.089 276.715L133.291 280.735L131.317 279.114C131.104 278.938 130.788 278.971 130.613 279.183C130.438 279.397 130.469 279.712 130.683 279.886L133.076 281.851C133.166 281.925 133.278 281.965 133.393 281.965C133.415 281.965 133.438 281.963 133.461 281.96C133.599 281.941 133.723 281.865 133.803 281.75L136.91 277.286C137.068 277.059 137.012 276.748 136.785 276.59C136.558 276.43 136.247 276.487 136.089 276.715Z" fill="white"/>
<path d="M115.25 259C114.01 259 113 260.01 113 261.25C113 262.49 114.01 263.5 115.25 263.5C116.49 263.5 117.5 262.49 117.5 261.25C117.5 260.01 116.49 259 115.25 259ZM115.25 262.5C114.561 262.5 114 261.939 114 261.25C114 260.561 114.561 260 115.25 260C115.939 260 116.5 260.561 116.5 261.25C116.5 261.939 115.939 262.5 115.25 262.5Z" fill="white"/>
<path d="M135 261C135.276 261 135.5 260.776 135.5 260.5C135.5 260.224 135.276 260 135 260C134.724 260 134.5 260.224 134.5 260.5C134.5 260.776 134.724 261 135 261Z" fill="white"/>
<path d="M133 261C133.276 261 133.5 260.776 133.5 260.5C133.5 260.224 133.276 260 133 260C132.724 260 132.5 260.224 132.5 260.5C132.5 260.776 132.724 261 133 261Z" fill="white"/>
<path d="M136 262.5C136.276 262.5 136.5 262.276 136.5 262C136.5 261.724 136.276 261.5 136 261.5C135.724 261.5 135.5 261.724 135.5 262C135.5 262.276 135.724 262.5 136 262.5Z" fill="white"/>
<path d="M134 262.5C134.276 262.5 134.5 262.276 134.5 262C134.5 261.724 134.276 261.5 134 261.5C133.724 261.5 133.5 261.724 133.5 262C133.5 262.276 133.724 262.5 134 262.5Z" fill="white"/>
<path d="M131 261C131.276 261 131.5 260.776 131.5 260.5C131.5 260.224 131.276 260 131 260C130.724 260 130.5 260.224 130.5 260.5C130.5 260.776 130.724 261 131 261Z" fill="white"/>
<path d="M132 262.5C132.276 262.5 132.5 262.276 132.5 262C132.5 261.724 132.276 261.5 132 261.5C131.724 261.5 131.5 261.724 131.5 262C131.5 262.276 131.724 262.5 132 262.5Z" fill="white"/>
<path d="M129 261C129.276 261 129.5 260.776 129.5 260.5C129.5 260.224 129.276 260 129 260C128.724 260 128.5 260.224 128.5 260.5C128.5 260.776 128.724 261 129 261Z" fill="white"/>
<path d="M130 262.5C130.276 262.5 130.5 262.276 130.5 262C130.5 261.724 130.276 261.5 130 261.5C129.724 261.5 129.5 261.724 129.5 262C129.5 262.276 129.724 262.5 130 262.5Z" fill="white"/>
<path d="M127 261C127.276 261 127.5 260.776 127.5 260.5C127.5 260.224 127.276 260 127 260C126.724 260 126.5 260.224 126.5 260.5C126.5 260.776 126.724 261 127 261Z" fill="white"/>
<path d="M128 262.5C128.276 262.5 128.5 262.276 128.5 262C128.5 261.724 128.276 261.5 128 261.5C127.724 261.5 127.5 261.724 127.5 262C127.5 262.276 127.724 262.5 128 262.5Z" fill="white"/>
<path d="M140 264.196V258.304C140 257.033 138.966 256 137.696 256H112.304C111.033 256 110 257.033 110 258.304V264.196C110 264.93 110.351 265.577 110.888 266C110.351 266.423 110 267.07 110 267.804V273.695C110 274.43 110.351 275.077 110.888 275.5C110.351 275.923 110 276.57 110 277.304V283.195C110 284.466 111.033 285.5 112.304 285.5H131.004C131.773 285.821 132.616 286 133.5 286C137.084 286 140 283.084 140 279.5C140 278.089 139.544 276.786 138.777 275.719C139.508 275.328 140 274.559 140 273.696V267.804C140 267.069 139.648 266.422 139.111 266C139.648 265.577 140 264.93 140 264.196ZM129.348 284.5H112.304C111.585 284.5 111 283.915 111 283.196V277.304C111 276.585 111.585 276 112.304 276H128.029C127.994 276.054 127.963 276.112 127.93 276.167C127.841 276.315 127.758 276.467 127.68 276.623C127.641 276.702 127.601 276.781 127.565 276.862C127.526 276.949 127.49 277.037 127.455 277.125C127.419 277.215 127.386 277.307 127.355 277.399C127.327 277.48 127.299 277.56 127.274 277.642C127.225 277.807 127.182 277.973 127.145 278.142C127.133 278.201 127.123 278.262 127.112 278.322C127.087 278.458 127.065 278.595 127.049 278.733C127.042 278.793 127.034 278.853 127.029 278.914C127.012 279.109 127 279.304 127 279.5C127 279.737 127.014 279.97 127.039 280.201C127.046 280.267 127.06 280.33 127.069 280.396C127.092 280.56 127.117 280.724 127.152 280.884C127.169 280.961 127.191 281.035 127.211 281.11C127.248 281.256 127.287 281.4 127.334 281.542C127.361 281.623 127.392 281.702 127.422 281.782C127.471 281.912 127.523 282.041 127.58 282.167C127.618 282.252 127.659 282.336 127.701 282.42C127.759 282.534 127.819 282.646 127.883 282.757C127.934 282.844 127.986 282.93 128.041 283.015C128.105 283.114 128.173 283.211 128.243 283.307C128.306 283.394 128.368 283.481 128.435 283.565C128.506 283.653 128.582 283.737 128.657 283.821C128.731 283.903 128.802 283.987 128.88 284.066C128.967 284.154 129.061 284.236 129.153 284.319C129.219 284.378 129.28 284.443 129.348 284.5ZM133.5 285C132.748 285 132.032 284.847 131.378 284.573L131.336 284.555C131.192 284.493 131.051 284.425 130.913 284.351C130.871 284.329 130.832 284.303 130.791 284.279C130.687 284.22 130.585 284.159 130.486 284.094C130.448 284.069 130.41 284.043 130.372 284.017C130.259 283.939 130.149 283.857 130.043 283.771C130.026 283.757 130.008 283.744 129.991 283.729C129.86 283.621 129.735 283.508 129.615 283.388C129.612 283.385 129.61 283.382 129.607 283.379C129.495 283.267 129.389 283.149 129.287 283.028C129.267 283.004 129.248 282.98 129.229 282.956C129.138 282.844 129.051 282.729 128.97 282.611C128.957 282.592 128.943 282.574 128.931 282.556C128.84 282.421 128.756 282.282 128.677 282.138C128.662 282.11 128.649 282.081 128.634 282.053C128.575 281.94 128.52 281.826 128.468 281.709C128.447 281.661 128.426 281.614 128.407 281.565C128.361 281.452 128.319 281.337 128.281 281.221C128.268 281.182 128.253 281.145 128.242 281.106C128.196 280.957 128.157 280.805 128.124 280.651C128.114 280.603 128.106 280.555 128.097 280.507C128.075 280.389 128.057 280.27 128.042 280.149C128.036 280.099 128.03 280.049 128.025 279.999C128.01 279.835 128 279.669 128 279.5C128 279.322 128.01 279.146 128.027 278.971C128.035 278.89 128.049 278.811 128.06 278.731C128.073 278.641 128.085 278.55 128.102 278.461C128.121 278.36 128.147 278.261 128.172 278.162C128.189 278.097 128.204 278.032 128.222 277.968C128.254 277.858 128.291 277.749 128.33 277.641C128.348 277.592 128.366 277.542 128.385 277.493C128.431 277.378 128.48 277.265 128.534 277.154C128.552 277.114 128.571 277.076 128.59 277.037C128.649 276.921 128.711 276.806 128.778 276.694C128.797 276.663 128.815 276.632 128.834 276.602C128.907 276.486 128.984 276.373 129.065 276.262C129.082 276.238 129.1 276.214 129.118 276.19C129.204 276.077 129.293 275.967 129.388 275.86C129.404 275.842 129.421 275.824 129.438 275.806C129.552 275.681 129.671 275.561 129.795 275.448C129.813 275.431 129.831 275.415 129.849 275.398C129.976 275.285 130.107 275.179 130.243 275.079C130.259 275.067 130.274 275.054 130.29 275.043C130.434 274.939 130.582 274.843 130.734 274.753C130.743 274.748 130.752 274.742 130.762 274.736C130.924 274.642 131.091 274.557 131.262 274.48C131.263 274.48 131.263 274.479 131.264 274.479C131.782 274.247 132.335 274.096 132.904 274.034C132.91 274.033 132.916 274.032 132.923 274.031C133.114 274.011 133.306 274 133.5 274C134.464 274 135.404 274.258 136.229 274.732C136.231 274.733 136.233 274.734 136.235 274.735C136.394 274.827 136.549 274.927 136.699 275.035C136.71 275.043 136.721 275.052 136.733 275.06C136.872 275.162 137.008 275.27 137.138 275.386C137.154 275.4 137.169 275.415 137.185 275.43C137.31 275.543 137.431 275.662 137.546 275.788C138.445 276.767 139 278.069 139 279.5C139 282.533 136.533 285 133.5 285ZM139 267.804V273.695C139 274.257 138.631 274.748 138.111 274.924C137.075 273.88 135.689 273.185 134.146 273.032C133.932 273.011 133.716 273 133.5 273C131.668 273 130.013 273.766 128.83 274.99C128.826 274.993 128.823 274.996 128.819 275H112.304C111.585 275 111 274.415 111 273.696V267.804C111 267.085 111.585 266.5 112.304 266.5H137.695C138.415 266.5 139 267.085 139 267.804ZM112.304 265.5C111.585 265.5 111 264.915 111 264.196V258.304C111 257.585 111.585 257 112.304 257H137.695C138.415 257 139 257.585 139 258.304V264.196C139 264.915 138.415 265.5 137.696 265.5H112.304Z" fill="white"/>
<path d="M115.25 273C116.49 273 117.5 271.99 117.5 270.75C117.5 269.51 116.49 268.5 115.25 268.5C114.01 268.5 113 269.51 113 270.75C113 271.99 114.01 273 115.25 273ZM115.25 269.5C115.939 269.5 116.5 270.061 116.5 270.75C116.5 271.439 115.939 272 115.25 272C114.561 272 114 271.439 114 270.75C114 270.061 114.561 269.5 115.25 269.5Z" fill="white"/>
<path d="M135 270.5C135.276 270.5 135.5 270.276 135.5 270C135.5 269.724 135.276 269.5 135 269.5C134.724 269.5 134.5 269.724 134.5 270C134.5 270.276 134.724 270.5 135 270.5Z" fill="white"/>
<path d="M133 270.5C133.276 270.5 133.5 270.276 133.5 270C133.5 269.724 133.276 269.5 133 269.5C132.724 269.5 132.5 269.724 132.5 270C132.5 270.276 132.724 270.5 133 270.5Z" fill="white"/>
<path d="M136 272C136.276 272 136.5 271.776 136.5 271.5C136.5 271.224 136.276 271 136 271C135.724 271 135.5 271.224 135.5 271.5C135.5 271.776 135.724 272 136 272Z" fill="white"/>
<path d="M134 272C134.276 272 134.5 271.776 134.5 271.5C134.5 271.224 134.276 271 134 271C133.724 271 133.5 271.224 133.5 271.5C133.5 271.776 133.724 272 134 272Z" fill="white"/>
<path d="M131 270.5C131.276 270.5 131.5 270.276 131.5 270C131.5 269.724 131.276 269.5 131 269.5C130.724 269.5 130.5 269.724 130.5 270C130.5 270.276 130.724 270.5 131 270.5Z" fill="white"/>
<path d="M132 272C132.276 272 132.5 271.776 132.5 271.5C132.5 271.224 132.276 271 132 271C131.724 271 131.5 271.224 131.5 271.5C131.5 271.776 131.724 272 132 272Z" fill="white"/>
<path d="M129 270.5C129.276 270.5 129.5 270.276 129.5 270C129.5 269.724 129.276 269.5 129 269.5C128.724 269.5 128.5 269.724 128.5 270C128.5 270.276 128.724 270.5 129 270.5Z" fill="white"/>
<path d="M130 272C130.276 272 130.5 271.776 130.5 271.5C130.5 271.224 130.276 271 130 271C129.724 271 129.5 271.224 129.5 271.5C129.5 271.776 129.724 272 130 272Z" fill="white"/>
<path d="M127 270.5C127.276 270.5 127.5 270.276 127.5 270C127.5 269.724 127.276 269.5 127 269.5C126.724 269.5 126.5 269.724 126.5 270C126.5 270.276 126.724 270.5 127 270.5Z" fill="white"/>
<path d="M128 272C128.276 272 128.5 271.776 128.5 271.5C128.5 271.224 128.276 271 128 271C127.724 271 127.5 271.224 127.5 271.5C127.5 271.776 127.724 272 128 272Z" fill="white"/>
<path d="M115.25 278C114.01 278 113 279.01 113 280.25C113 281.49 114.01 282.5 115.25 282.5C116.49 282.5 117.5 281.49 117.5 280.25C117.5 279.01 116.49 278 115.25 278ZM115.25 281.5C114.561 281.5 114 280.939 114 280.25C114 279.561 114.561 279 115.25 279C115.939 279 116.5 279.561 116.5 280.25C116.5 280.939 115.939 281.5 115.25 281.5Z" fill="white"/>
<path d="M27.5 235.462H23.75V238.231H27.5V235.462ZM26.5625 237.308H24.6875V236.385H26.5625V237.308ZM27.5 239.154H23.75V241.923H27.5V239.154ZM26.5625 241H24.6875V240.077H26.5625V241ZM25.625 242.846C24.0716 242.846 22.8125 244.086 22.8125 245.615C22.8125 247.145 24.0716 248.385 25.625 248.385C27.1784 248.385 28.4375 247.145 28.4375 245.615C28.4375 244.086 27.1784 242.846 25.625 242.846ZM25.625 247.462C24.5909 247.462 23.75 246.634 23.75 245.615C23.75 244.597 24.5909 243.769 25.625 243.769C26.6591 243.769 27.5 244.597 27.5 245.615C27.5 246.634 26.6591 247.462 25.625 247.462ZM40.2931 237.904L40.9559 238.557L39.0809 240.403L38.4181 239.75L40.2931 237.904ZM49.0625 230.846H47.5756L45.9753 229.271C45.6088 228.91 45.0162 228.91 44.6497 229.271L43.0494 230.846H20.9375C20.42 230.846 20 231.26 20 231.769V252.077C20 252.586 20.42 253 20.9375 253H49.0625C49.58 253 50 252.586 50 252.077V231.769C50 231.26 49.58 230.846 49.0625 230.846ZM35 240.077V243.769H38.75L46.25 236.385V248.385H30.3125V235.462H39.6875L35 240.077ZM35.9375 240.73L38.0872 242.846H35.9375V240.73ZM38.8869 242.328L36.4625 239.941L45.3125 231.229L47.7369 233.616L38.8869 242.328ZM21.875 251.154V232.693H42.5L40.625 234.539H29.375V249.308H47.1875V235.462L48.125 234.539V251.154H21.875Z" fill="white"/>
<path d="M34.0592 134.068C33.4506 134.068 32.8782 134.305 32.4478 134.736C32.2571 134.926 32.2571 135.235 32.4478 135.426C32.6384 135.617 32.9476 135.617 33.1382 135.426C33.3842 135.18 33.7114 135.045 34.0592 135.045C34.7773 135.045 35.3616 135.629 35.3616 136.347V141.775C35.3616 142.493 34.7773 143.078 34.0592 143.078C33.341 143.078 32.7567 142.493 32.7567 141.775V136.673C32.7567 136.403 32.5382 136.184 32.2685 136.184C31.9988 136.184 31.7803 136.403 31.7803 136.673V141.775C31.7803 143.032 32.8026 144.054 34.0592 144.054C35.3158 144.054 36.338 143.032 36.338 141.775V136.347C36.3379 135.09 35.3157 134.068 34.0592 134.068Z" fill="white"/>
<path d="M29.5869 143.078H26.8349V139.549H28.5584C28.8281 139.549 29.0466 139.331 29.0466 139.061C29.0466 138.791 28.8281 138.573 28.5584 138.573H26.8349V135.045H29.5869V135.045C29.8566 135.045 30.0751 134.826 30.0751 134.556C30.0751 134.287 29.8566 134.068 29.5869 134.068H26.3467C26.077 134.068 25.8585 134.287 25.8585 134.556V143.566C25.8585 143.835 26.0771 144.054 26.3467 144.054H29.5869C29.8566 144.054 30.0751 143.835 30.0751 143.566C30.0751 143.296 29.8566 143.078 29.5869 143.078Z" fill="white"/>
<path d="M21.7706 138.573C21.1464 138.573 20.6387 138.065 20.6387 137.441V136.177C20.6387 135.552 21.1464 135.045 21.7706 135.045C22.3947 135.045 22.9025 135.552 22.9025 136.177C22.9025 136.446 23.1211 136.665 23.3907 136.665C23.6603 136.665 23.8789 136.446 23.8789 136.177C23.8789 135.014 22.9331 134.068 21.7705 134.068C20.608 134.068 19.6622 135.014 19.6622 136.177V137.441C19.6622 138.604 20.608 139.549 21.7705 139.549C22.3947 139.549 22.9024 140.057 22.9024 140.681V141.946C22.9024 142.57 22.3947 143.078 21.7705 143.078C21.1464 143.078 20.6387 142.57 20.6387 141.946C20.6387 141.676 20.42 141.457 20.1505 141.457C19.8809 141.457 19.6622 141.676 19.6622 141.946C19.6622 143.108 20.608 144.054 21.7705 144.054C22.933 144.054 23.8789 143.108 23.8789 141.946V140.681C23.8789 139.519 22.9331 138.573 21.7706 138.573Z" fill="white"/>
<path d="M40.6121 128.451H15.3879C14.0713 128.451 13 129.522 13 130.839V134.309C13 134.579 13.2186 134.798 13.4882 134.798C13.7578 134.798 13.9764 134.579 13.9764 134.309V130.839C13.9764 130.061 14.6096 129.428 15.3879 129.428H40.6121C41.3905 129.428 42.0237 130.061 42.0237 130.839V147.504H38.9645C38.6948 147.504 38.4763 147.722 38.4763 147.992C38.4763 148.262 38.6949 148.48 38.9645 148.48H42.0237V149.375C42.0237 150.153 41.3904 150.787 40.6121 150.787H31.5061H24.494H15.3879C14.6096 150.787 13.9764 150.153 13.9764 149.375V148.48H37.3371C37.6067 148.48 37.8253 148.262 37.8253 147.992C37.8253 147.722 37.6067 147.504 37.3371 147.504H13.9764V135.937C13.9764 135.667 13.7578 135.449 13.4882 135.449C13.2186 135.449 13 135.667 13 135.937V149.375C13 150.692 14.0713 151.763 15.3879 151.763H23.7543L22.5535 154.572H20.2077C19.9381 154.572 19.7195 154.791 19.7195 155.061C19.7195 155.33 19.9382 155.549 20.2077 155.549H35.7923C36.0619 155.549 36.2805 155.33 36.2805 155.061C36.2805 154.791 36.0618 154.572 35.7923 154.572H33.4465L32.2457 151.763H40.6121C41.9288 151.763 43 150.692 43 149.375V130.839C43.0001 129.522 41.9288 128.451 40.6121 128.451ZM32.3846 154.572H23.6155L24.4497 152.621H31.5504L32.3846 154.572Z" fill="white"/>
<path d="M28.4057 149.247C28.2936 149.077 28.0786 148.995 27.8812 149.044C27.6751 149.096 27.5228 149.281 27.5126 149.494C27.4913 149.935 28.0461 150.175 28.3522 149.855C28.5083 149.692 28.5326 149.435 28.4057 149.247Z" fill="white"/>
</g>
<defs>
<clipPath id="clip0_2_2">
<rect width="478.67" height="383.237" fill="white"/>
</clipPath>
</defs>
</svg>
